<?xml version="1.0" encoding="UTF-8"?>
<svg width="30px" height="36px" viewBox="0 0 30 36" version="1.1" xmlns="http://www.w3.org/2000/svg" xmlns:xlink="http://www.w3.org/1999/xlink">
    <!-- Generator: Sketch 50.2 (55047) - http://www.bohemiancoding.com/sketch -->
    <title>Group</title>
    <desc>Created with Sketch.</desc>
    <defs></defs>
    <g id="Home" stroke="none" stroke-width="1" fill="none" fill-rule="evenodd">
        <g transform="translate(-213.000000, -22.000000)" fill="#FFFFFF" id="Group-6">
            <g transform="translate(213.000000, 22.000000)">
                <g id="Group">
                    <path d="M14.0800537,23.5692176 C13.1846005,23.0117672 9.40610882,20.6689347 9.40610882,20.6689347 C9.40610882,20.6689347 5.62937951,18.3223406 4.73269268,17.7672188 C4.64704217,17.7141965 4.53759985,17.7740257 4.53284149,17.8757712 C4.52297229,18.0883977 4.50834474,18.3995453 4.50041413,18.5733008 C4.49671319,18.6576707 4.51786146,18.7402493 4.5620966,18.8117219 C4.75965673,19.1312886 5.34176298,20.0726132 5.63501905,20.547485 C5.74551878,20.7266144 5.77847484,20.9438982 5.72613286,21.1484639 L4.96814347,24.1121586 C4.93783094,24.2311005 4.97924631,24.3563119 5.07406107,24.4328001 C5.46477544,24.7478886 5.94766104,25.0945038 6.52994352,25.4558077 C7.11187354,25.8172907 7.63599827,26.0956576 8.09015746,26.3048807 C8.20030472,26.3555743 8.32895672,26.3358701 8.41901312,26.2541871 L10.6668984,24.2153371 C10.822162,24.0745415 11.0273003,24.0050393 11.2345534,24.0233105 C11.7838798,24.0714963 12.8730159,24.1676887 13.243287,24.2004694 C13.3262939,24.2078137 13.4087722,24.1891842 13.4808526,24.1470888 C13.6294192,24.0605694 13.8950063,23.9054434 14.0763527,23.7995779 C14.1632369,23.7488843 14.165528,23.622419 14.0800537,23.5692176" id="Fill-22"></path>
                    <path d="M7.72619166,27.3180707 C7.68737354,27.0805315 7.53721799,26.8760381 7.32318899,26.7687279 C6.72362546,26.467762 6.24686835,26.1799433 6.11647476,26.099816 C5.98608116,26.0196887 5.51391165,25.7240528 4.97416332,25.3243046 C4.78166072,25.181639 4.53234252,25.1405982 4.30472717,25.2143295 L4.17451002,25.2564363 C3.27022424,25.5495849 2.57343897,26.2808575 2.32076829,27.2029432 C1.70144281,29.4630304 0.535487603,33.7184827 0.0112665207,35.6315885 C-0.0658403837,35.9126558 0.270465703,36.1192812 0.483436031,35.9220721 C1.93435153,34.5787407 5.16154897,31.5905789 6.87536902,30.0034899 C7.57462454,29.3560756 7.90246122,28.3979237 7.74824741,27.4541627 L7.72619166,27.3180707 Z" id="Fill-24"></path>
                    <path d="M29.8506268,1.58544671 C30.1250174,1.2176994 29.9605244,0.939162553 29.8379056,0.825101892 C29.8379056,0.825101892 29.8377289,0.824923114 29.8375522,0.824744335 C29.7082194,0.722125496 29.5509704,0.649005104 29.3700458,0.621294441 L25.3939448,0.0114810952 C25.0250283,-0.0450129 24.6557583,0.109809251 24.434373,0.413553864 L22.2646912,3.38967898 C21.9309347,3.84735185 22.0452494,4.4505504 22.4339546,4.77485453 C22.4622241,4.79881085 22.4699982,4.84064501 22.4503863,4.87336147 C22.4339546,4.90035702 22.4026815,4.91340784 22.3735286,4.90893838 L21.2793235,4.7410654 L19.7720306,4.50990485 C19.3525824,4.44572338 18.9326041,4.62146261 18.6808291,4.96704138 L12.3387501,13.6669379 C12.2562386,13.7801046 12.10217,13.8110333 11.9832615,13.7384492 L5.87811609,10.0075214 C5.47439272,9.76080716 4.94752047,9.89810902 4.71270718,10.315378 C4.48390116,10.7219202 4.64645061,11.2423443 5.04204651,11.4842316 L5.19982549,11.5805932 C5.2779199,11.6281482 5.31997074,11.7186101 5.30636606,11.8099659 L5.12102434,13.0531914 C5.10335592,13.1726154 4.97137283,13.2351879 4.86942606,13.1727942 C4.86942606,13.1727942 3.99854969,12.6489733 3.97628748,12.6352073 C3.2541792,12.1879036 2.31033227,12.4176339 1.86826843,13.1483015 C1.47461605,13.7990551 1.61260641,14.6266207 2.15714708,15.1161161 C2.17393207,15.131491 2.33188774,15.2544906 2.37270179,15.2796984 C2.37358521,15.2802347 2.37446863,15.2809498 2.37535205,15.2813074 C2.37552873,15.2814862 2.37570542,15.281665 2.37570542,15.281665 L6.93645438,18.106901 C9.40172887,19.6134672 11.2756414,18.378108 11.8606427,17.9350949 C12.3799176,17.5417823 12.9698661,17.1075294 13.953997,17.7121582 C14.3066586,17.9290165 14.7519028,17.9209714 15.107038,17.7080463 L16.2424106,17.0274367 C16.5774038,16.8266685 16.9945552,16.8284562 17.3281349,17.0320849 L20.7863746,19.1456039 C20.9222447,19.2285571 21.0982222,19.1933378 21.1925715,19.064081 L29.6453198,7.48674508 C30.3347415,6.55638194 29.8244776,6.10389365 29.4044992,5.99269344 C29.3774666,5.98643619 29.3511406,5.97874872 29.3232245,5.97445804 L27.2959501,5.66374106 C27.2660905,5.65891405 27.2360542,5.646042 27.2084915,5.62905804 C27.0961203,5.559692 27.0607835,5.41059076 27.1295136,5.29670887 C27.8166384,4.35758559 29.8506268,1.58544671 29.8506268,1.58544671" id="Fill-26"></path>
                </g>
            </g>
        </g>
    </g>
</svg>