<?xml version="1.0" encoding="UTF-8"?>
<svg width="142px" height="32px" viewBox="0 0 142 32" version="1.1" xmlns="http://www.w3.org/2000/svg" xmlns:xlink="http://www.w3.org/1999/xlink">
    <!-- Generator: Sketch 53.2 (72643) - https://sketchapp.com -->
    <title>Group 28</title>
    <desc>Created with Sketch.</desc>
    <g id="Desktop" stroke="none" stroke-width="1" fill="none" fill-rule="evenodd">
        <g id="Group-28" fill="#FFFFFF">
            <path d="M42.9336164,14.6014088 L40.3636192,14.6014088 L40.3636192,10.9500982 L42.9543875,10.9500982 C44.8898502,10.9500982 45.2960584,11.9089271 45.2960584,12.7133232 C45.2960584,13.9838341 44.5233101,14.6014088 42.9336164,14.6014088 L42.9336164,14.6014088 Z M45.3641502,16.9972293 C46.8732582,16.4877732 48.4454605,15.1061709 48.4242209,12.7133232 C48.4242209,9.90427376 46.5260837,8.35728595 43.0793266,8.35728595 L37.3244759,8.35728595 C37.2866818,8.35728595 37.2560717,8.38779699 37.2560717,8.42566197 L37.2560717,23.286571 C37.2560717,23.324436 37.2866818,23.3551035 37.3244759,23.3551035 L40.2952151,23.3551035 C40.3330092,23.3551035 40.3636192,23.324436 40.3636192,23.286571 L40.3636192,17.2358412 L42.043113,17.2358412 L45.6588503,23.3216196 C45.671188,23.3424297 45.6935209,23.3551035 45.7175716,23.3551035 L49.1660467,23.3551035 C49.1908784,23.3551035 49.2136798,23.3416474 49.2258613,23.3198985 C49.2378867,23.298306 49.237262,23.2717067 49.2241434,23.2505837 L45.3641502,16.9972293 Z" id="Fill-2"></path>
            <path d="M54.9766203,20.8551074 C53.4681369,20.8551074 52.5312499,19.7033549 52.5312499,17.8493791 C52.5312499,16.0199686 53.4681369,14.8835498 54.9766203,14.8835498 C56.4721412,14.8835498 57.4012195,16.0199686 57.4012195,17.8493791 C57.4012195,19.7033549 56.4721412,20.8551074 54.9766203,20.8551074 M54.9766203,12.3156158 C51.9156125,12.3156158 49.6938832,14.6429038 49.6938832,17.8493791 C49.6938832,21.1713269 51.8169107,23.4031701 54.9766203,23.4031701 C58.0256026,23.4031701 60.2385863,21.0674329 60.2385863,17.8493791 C60.2385863,14.5393227 58.1239922,12.3156158 54.9766203,12.3156158" id="Fill-4"></path>
            <path d="M66.6126351,14.8835811 C67.7512988,14.8835811 68.4415872,15.419793 68.6647597,16.4770396 C68.6714752,16.5086459 68.6992741,16.5313336 68.7316021,16.5313336 L71.3698472,16.5313336 C71.3890566,16.5313336 71.4071727,16.5233538 71.4202913,16.5092717 C71.4330976,16.4951897 71.4396569,16.4764137 71.437939,16.4573247 C71.2228876,13.8250828 69.4867027,12.3154906 66.6749485,12.3154906 C65.0832245,12.3154906 63.7455953,12.8731385 62.8066781,13.928351 C61.9085222,14.9374057 61.4337536,16.3211986 61.4337536,17.9296779 C61.4337536,21.3059197 63.402169,23.4032014 66.5709367,23.4032014 C69.3753508,23.4032014 71.1491735,21.9162969 71.4377828,19.3236411 C71.4399693,19.3043957 71.4337223,19.2849938 71.420916,19.2704424 C71.4079536,19.2558909 71.3893689,19.2475982 71.3698472,19.2475982 L68.7316021,19.2475982 C68.6989618,19.2475982 68.6710066,19.2707553 68.6646035,19.3026745 C68.4567361,20.3481861 67.7914354,20.8351109 66.5709367,20.8351109 C64.5697248,20.8351109 64.2709642,18.9895843 64.2709642,17.8894659 C64.2709642,16.4363582 64.8861331,14.8835811 66.6126351,14.8835811" id="Fill-6"></path>
            <path d="M85.4427209,16.5551791 C85.7143073,15.3924739 86.4611307,14.8033762 87.6636694,14.8033762 C88.8438753,14.8033762 89.5633683,15.3926304 89.8035637,16.5551791 L85.4427209,16.5551791 Z M87.7050555,12.3155532 C84.5826714,12.3155532 82.4847879,14.5555327 82.4847879,17.8895285 C82.4847879,21.3419697 84.4439891,23.4031075 87.7258266,23.4031075 C90.1305918,23.4031075 92.0291974,21.9332579 92.3431069,19.8284658 C92.3460742,19.8089074 92.3402958,19.7888796 92.3273333,19.7738588 C92.3143709,19.7586815 92.2953177,19.7500759 92.2754836,19.7500759 L89.6580097,19.7500759 C89.6289613,19.7500759 89.6031926,19.768226 89.5935099,19.7956077 C89.3064623,20.6086095 88.7354907,20.955653 87.6844406,20.955653 C86.2937123,20.955653 85.5084701,20.2174424 85.3499536,18.7616747 L92.5662794,18.7616747 C92.6021993,18.7616747 92.6320286,18.7338236 92.6343712,18.6979927 C92.6549861,18.4003928 92.6762258,18.0927789 92.6762258,17.7286805 C92.6762258,14.3898343 90.7713731,12.3155532 87.7050555,12.3155532 L87.7050555,12.3155532 Z" id="Fill-8"></path>
            <path d="M101.078942,12.3155532 L98.6543426,12.3155532 L98.6543426,9.64622862 C98.6543426,9.60836364 98.6237325,9.57785261 98.5860946,9.57785261 L95.8852238,9.57785261 C95.8474298,9.57785261 95.8169759,9.60836364 95.8169759,9.64622862 L95.8169759,12.3155532 L93.9741243,12.3155532 C93.9364864,12.3155532 93.9057201,12.3462207 93.9057201,12.3839292 L93.9057201,14.799621 C93.9057201,14.837486 93.9364864,14.867997 93.9741243,14.867997 L95.8169759,14.867997 L95.8169759,20.5061237 C95.8169759,22.9105499 97.1813107,23.4031075 99.2299995,23.4031075 L101.078942,23.4031075 C101.116736,23.4031075 101.14719,23.3725965 101.14719,23.3347315 L101.14719,20.960347 C101.14719,20.9226385 101.116736,20.891971 101.078942,20.891971 L99.7078915,20.891971 C98.8906337,20.891971 98.6543426,20.6711962 98.6543426,19.9074815 L98.6543426,14.867997 L101.078942,14.867997 C101.116736,14.867997 101.14719,14.837486 101.14719,14.799621 L101.14719,12.3839292 C101.14719,12.3462207 101.116736,12.3155532 101.078942,12.3155532" id="Fill-10"></path>
            <path d="M108.84464,16.9806125 C108.844328,16.9806125 108.844016,16.980456 108.84386,16.9802996 L106.559817,16.2574227 C105.708201,15.9690543 105.546873,15.7399868 105.546873,15.417978 C105.546873,15.085173 105.692583,14.6425283 106.953531,14.6425283 C107.933054,14.6425283 108.528701,15.0458998 108.547129,15.7212108 C108.548066,15.7582934 108.578364,15.7878657 108.615377,15.7878657 L111.253778,15.7878657 C111.271895,15.7878657 111.289386,15.7805117 111.302192,15.767525 C111.315155,15.7546947 111.322183,15.7370139 111.322026,15.7188638 C111.312187,14.5309674 110.864281,13.6339429 109.990488,13.052825 C109.265373,12.5704377 108.236656,12.3155532 107.015844,12.3155532 C104.921709,12.3155532 102.669057,13.1883253 102.626422,15.6390657 C102.626422,17.5463967 104.026677,18.2254628 105.395853,18.6380659 L107.139846,19.1802236 C108.403605,19.5945478 108.734069,19.7225377 108.734069,20.200231 C108.734069,20.7380076 108.434684,21.0963167 106.974146,21.0963167 C105.804716,21.0963167 105.2086,20.6702574 105.151753,19.7938866 C105.149411,19.7578992 105.119738,19.7298916 105.083661,19.7298916 L102.44526,19.7298916 C102.407622,19.7298916 102.376856,19.7605591 102.376856,19.7982676 C102.376856,22.7777095 104.888288,23.4031075 106.995073,23.4031075 C107.869647,23.4031075 109.122786,23.2705801 110.126672,22.6392364 C111.085267,22.0363696 111.571436,21.1346511 111.571436,19.9591156 C111.571436,18.2359461 110.481342,17.5221443 108.84464,16.9806125" id="Fill-12"></path>
            <path d="M115.500927,16.5551791 C115.772669,15.3924739 116.519336,14.8033762 117.721719,14.8033762 C118.901925,14.8033762 119.621574,15.3926304 119.861769,16.5551791 L115.500927,16.5551791 Z M117.763417,12.3155532 C114.640877,12.3155532 112.542994,14.5555327 112.542994,17.8895285 C112.542994,21.3419697 114.502195,23.4031075 117.784032,23.4031075 C120.188798,23.4031075 122.087403,21.9332579 122.401313,19.8284658 C122.40428,19.8089074 122.398502,19.7888796 122.385539,19.7738588 C122.37242,19.7586815 122.353523,19.7500759 122.333689,19.7500759 L119.716059,19.7500759 C119.687167,19.7500759 119.661398,19.768226 119.651716,19.7956077 C119.364824,20.6086095 118.793853,20.955653 117.742646,20.955653 C116.351918,20.955653 115.566832,20.2174424 115.408159,18.7616747 L122.624485,18.7616747 C122.660249,18.7616747 122.690234,18.7338236 122.692577,18.6979927 C122.713192,18.4003928 122.734431,18.0927789 122.734431,17.7286805 C122.734431,14.3898343 120.829579,12.3155532 117.763417,12.3155532 L117.763417,12.3155532 Z" id="Fill-14"></path>
            <path d="M130.560194,18.6855067 C130.560194,20.0605374 129.504303,21.1376552 128.156366,21.1376552 C127.571651,21.1376552 126.874491,20.9517726 126.874491,20.0658573 C126.874491,19.4160504 127.328489,19.0528908 128.440447,18.8125577 L129.996407,18.492896 C130.17179,18.4622285 130.394806,18.4037099 130.560194,18.3231294 L130.560194,18.6855067 Z M134.201857,21.1572136 L133.952447,21.1572136 C133.579191,21.1572136 133.397561,20.9702357 133.397561,20.5854837 L133.397561,16.3250477 C133.397561,13.6270897 131.927809,12.3155845 128.904283,12.3155845 C126.124232,12.3155845 124.32792,13.6693357 124.32792,15.7647399 C124.32792,15.8026048 124.35853,15.8331159 124.396324,15.8331159 L127.03457,15.8331159 C127.072364,15.8331159 127.102974,15.8026048 127.102974,15.7647399 C127.102974,15.0667412 127.688001,14.7128132 128.84197,14.7128132 C129.936748,14.7128132 130.53958,15.0581355 130.53958,15.6847853 C130.53958,16.2066023 130.34077,16.3583751 129.473224,16.4976306 L127.687532,16.8376331 C125.210146,17.2754274 123.953884,18.4220165 123.953884,20.2457942 C123.953884,22.1055592 125.350703,23.3551035 127.429377,23.3551035 C128.928958,23.3551035 130.044665,22.854566 130.750102,21.8667908 C130.799765,22.8836689 131.476467,23.4147174 132.145203,23.4147174 L134.201857,23.4147174 C134.239651,23.4147174 134.270261,23.3840499 134.270261,23.3461849 L134.270261,21.2255896 C134.270261,21.1878811 134.239651,21.1572136 134.201857,21.1572136 L134.201857,21.1572136 Z" id="Fill-16"></path>
            <path d="M141.797076,14.868044 C141.83487,14.868044 141.865324,14.8373764 141.865324,14.7996679 L141.865324,12.3839761 C141.865324,12.3461112 141.83487,12.3156001 141.797076,12.3156001 L139.372477,12.3156001 L139.372477,9.64627556 C139.372477,9.60841058 139.341866,9.57789955 139.304072,9.57789955 L136.603358,9.57789955 C136.565564,9.57789955 136.53511,9.60841058 136.53511,9.64627556 L136.53511,12.3156001 L134.692102,12.3156001 C134.654464,12.3156001 134.623854,12.3461112 134.623854,12.3839761 L134.623854,14.7996679 C134.623854,14.8373764 134.654464,14.868044 134.692102,14.868044 L136.53511,14.868044 L136.53511,20.5061706 C136.53511,22.9104404 137.899445,23.4031545 139.948133,23.4031545 L141.797076,23.4031545 C141.83487,23.4031545 141.865324,23.3726435 141.865324,23.3347785 L141.865324,20.9603939 C141.865324,20.9226854 141.83487,20.8920179 141.797076,20.8920179 L140.425869,20.8920179 C139.608768,20.8920179 139.372477,20.6712432 139.372477,19.9075285 L139.372477,14.868044 L141.797076,14.868044 Z" id="Fill-18"></path>
            <path d="M78.4968727,16.6610602 L82.788999,12.4328564 C82.8088331,12.413298 82.8147677,12.3837258 82.8044602,12.3580652 C82.7938404,12.3322482 82.7688526,12.3155062 82.7412098,12.3155062 L79.3572345,12.3155062 C79.3394307,12.3155062 79.3224077,12.3223908 79.3097577,12.3349081 L75.5053623,16.031907 L75.5053623,12.3840387 C75.5053623,12.3461738 75.4745961,12.3155062 75.4369582,12.3155062 L72.7362436,12.3155062 C72.6984495,12.3155062 72.6678394,12.3461738 72.6678394,12.3840387 L72.6678394,23.3346846 C72.6678394,23.3725496 72.6984495,23.4032171 72.7362436,23.4032171 L75.4369582,23.4032171 C75.4745961,23.4032171 75.5053623,23.3725496 75.5053623,23.3346846 L75.5053623,19.6257942 L76.4653631,18.6801086 L79.6598995,23.3733319 C79.6727057,23.3919515 79.6939454,23.4032171 79.7164344,23.4032171 L83.081825,23.4032171 C83.1074375,23.4032171 83.1307074,23.3889786 83.1425766,23.3662909 C83.1542897,23.3436032 83.1525718,23.316378 83.1378914,23.2954114 L78.4968727,16.6610602 Z" id="Fill-20"></path>
            <g id="Group-4" transform="translate(0.147045, 0.037940)">
                <path d="M12.4604649,20.685297 C11.6669455,20.1983721 8.31857782,18.1519421 8.31857782,18.1519421 C8.31857782,18.1519421 4.97177192,16.1022263 4.1771593,15.6173355 C4.1012588,15.5710213 4.00427484,15.6232813 4.00005814,15.7121544 C3.9913124,15.8978806 3.97834997,16.1696635 3.97132215,16.3214364 C3.9680425,16.3951323 3.98678336,16.4672635 4.025983,16.5296937 C4.2010539,16.8088306 4.71689618,17.6310639 4.97676949,18.0458576 C5.0746905,18.2023244 5.10389501,18.3921187 5.05751137,18.5708039 L4.38580758,21.159548 C4.35894568,21.263442 4.39564654,21.3728123 4.47966808,21.4396237 C4.82590553,21.7148489 5.25382192,22.0176123 5.76982037,22.3332059 C6.28550646,22.648956 6.74996754,22.8921055 7.15242758,23.0748588 C7.25003625,23.1191389 7.36404317,23.1019276 7.44384801,23.0305787 L9.43584565,21.2496729 C9.57343482,21.12669 9.7552212,21.0659808 9.93888166,21.0819405 C10.4256756,21.12403 11.3908301,21.2080527 11.7189514,21.2366862 C11.7925093,21.2431013 11.8655986,21.2268288 11.9294737,21.1900591 C12.0611283,21.1144856 12.2964823,20.9789853 12.4571852,20.8865134 C12.5341789,20.8422332 12.5362092,20.7317676 12.4604649,20.685297" id="Fill-22"></path>
                <path d="M6.83851812,23.9903151 C6.80415987,23.7811189 6.67125591,23.6010256 6.48181701,23.5065196 C5.95113822,23.2414647 5.52915644,22.9879884 5.41374396,22.9174219 C5.29833147,22.8468553 4.88041021,22.5864945 4.40267436,22.234444 C4.23228868,22.1088011 4.01161501,22.0726573 3.81015072,22.137591 L3.69489441,22.1746737 C2.89450336,22.432844 2.27777277,23.0768616 2.0541318,23.8889246 C1.50596154,25.8793394 0.473964643,29.6270336 0.00997209354,31.3118687 C-0.058275885,31.5593993 0.2393915,31.7413702 0.427893353,31.567692 C1.71211104,30.3846461 4.56853101,27.75303 6.08544774,26.3553116 C6.70436477,25.7851464 6.99453581,24.9413206 6.85803985,24.1101687 L6.83851812,23.9903151 Z" id="Fill-24"></path>
                <path d="M26.3155698,1.38758245 C26.5581078,1.06573013 26.4127099,0.821954767 26.3043252,0.722128913 C26.3043252,0.722128913 26.3041691,0.721972446 26.3040129,0.721815979 C26.1896936,0.632004004 26.0506989,0.56800906 25.8907768,0.543756697 L22.3762402,0.0100482508 C22.0501492,-0.0393952757 21.7237458,0.0961050217 21.52806,0.36194221 L19.6102449,2.96664596 C19.3152325,3.36720112 19.416277,3.89512029 19.7598595,4.17895117 C19.7848473,4.19991772 19.7917189,4.23653097 19.7743836,4.2651644 C19.7598595,4.2887909 19.7322167,4.30021298 19.706448,4.29630131 L18.7392633,4.14937893 L17.406944,3.94706729 C17.0361873,3.89089568 16.664962,4.0447026 16.4424143,4.34715304 L10.8365534,11.9612997 C10.7636202,12.0603432 10.6274366,12.0874119 10.5223316,12.0238864 L5.12589991,8.75857958 C4.76904263,8.54265532 4.30333217,8.66282186 4.0957771,9.0280155 C3.89353195,9.38382114 4.0372119,9.83929615 4.38688518,10.0509958 L4.52634844,10.1353314 C4.59537729,10.1769516 4.63254667,10.2561239 4.62052128,10.3360784 L4.4566949,11.4241489 C4.44107752,11.5286688 4.32441564,11.5834322 4.23430332,11.5288253 C4.23430332,11.5288253 3.46452234,11.0703774 3.44484444,11.0583294 C2.80656186,10.6668494 1.97228108,10.8679093 1.58153407,11.5073893 C1.2335787,12.0769287 1.35555049,12.8012137 1.83687834,13.22962 C1.85171485,13.2430761 1.99133429,13.3507253 2.02741045,13.3727872 C2.02819132,13.3732566 2.02897219,13.3738824 2.02975306,13.3741954 C2.02990923,13.3743518 2.0300654,13.3745083 2.0300654,13.3745083 L6.06138135,15.847154 C8.24047527,17.1657002 9.89685527,16.0845143 10.4139469,15.6967894 C10.8729419,15.3525623 11.3944065,14.9725043 12.2642949,15.5016752 C12.5760179,15.6914695 12.969576,15.6844285 13.2834855,15.4980765 L14.2870588,14.9024072 C14.5831644,14.7266949 14.9518909,14.7282595 15.2467472,14.9064753 L18.3035382,16.7562265 C18.4236359,16.8288271 18.5791851,16.7980031 18.6625819,16.6848776 L26.1340957,6.55239691 C26.7434861,5.73814339 26.292456,5.34212577 25.9212307,5.24480339 C25.8973361,5.23932705 25.8740662,5.23259898 25.8493908,5.22884377 L24.0574519,4.95690437 C24.0310585,4.95267977 24.0045089,4.94141416 23.9801458,4.9265498 C23.8808192,4.86584066 23.8495844,4.73534731 23.9103361,4.63567792 C24.5176962,3.81375752 26.3155698,1.38758245 26.3155698,1.38758245" id="Fill-26"></path>
            </g>
        </g>
    </g>
</svg>