<svg xmlns="http://www.w3.org/2000/svg" width="361.064" height="300" viewBox="0 0 361.064 300"><g data-name="Group 1634"><g data-name="Group 1538"><path data-name="Path 3048" d="M349.516 184.584H281.5a11.55 11.55 0 010-23.1h68.02a11.55 11.55 0 000-23.1h-85.843c-.121 0-.232-.022-.353-.022H195.3a11.545 11.545 0 01-2.164-22.887h79.513a11.55 11.55 0 100-23.1h-7.139a11.716 11.716 0 00-2.175-.21H248.4a11.547 11.547 0 012.175-22.887h90.984a11.55 11.55 0 000-23.1h-68.02a11.55 11.55 0 110-23.1h68.02a11.55 11.55 0 000-23.1H89.78a11.55 11.55 0 000 23.1h68.02a11.545 11.545 0 012.164 22.887H80.451a11.55 11.55 0 000 23.1h7.154a11.717 11.717 0 002.175.21h14.927a11.547 11.547 0 01-2.175 22.887H11.548a11.554 11.554 0 000 23.108h68.02a11.55 11.55 0 110 23.1h-68.02a11.543 11.543 0 100 23.085h85.839c.121 0 .232.022.353.022h68.02a11.546 11.546 0 011.2 23.03H88.422a11.55 11.55 0 000 23.1h8.115a11.04 11.04 0 001.214.066h13.966a11.547 11.547 0 01-1.214 23.03H19.519a11.55 11.55 0 000 23.1h68.02a11.55 11.55 0 110 23.1H19.508a11.55 11.55 0 000 23.1h251.776a11.55 11.55 0 000-23.1h-68.02a11.546 11.546 0 01-1.2-23.03h78.552a11.55 11.55 0 000-23.1H272.5a11.044 11.044 0 00-1.214-.066h-13.968a11.547 11.547 0 011.214-23.03h90.984a11.55 11.55 0 000-23.1zM180.764 69.3a11.545 11.545 0 012.164 22.887h-10.6a11.545 11.545 0 01-2.164-22.887h10.6zm-.464 161.4a11.546 11.546 0 01-1.2-23.03h9.638a11.546 11.546 0 011.2 23.03z" fill="#e3dffc"/><g data-name="Group 29"><g data-name="Group 44"><g data-name="Group 40"><g data-name="Group 41"><g transform="translate(227 33)"><path d="M36.29 0C16.14 0 0 3.32 0 27.75c0 15.48 6.72 22.48 16.72 25.53v11l9-9.23a106.109 106.109 0 0010.65.46c20.16 0 36.44-3.32 36.44-27.75S56.45 0 36.29 0z" fill="#7289da" opacity=".552"/><circle cx="4.37" cy="4.37" r="4.37" transform="translate(17.93 23.39)" fill="#fff"/><circle data-name="Oval" cx="4.37" cy="4.37" r="4.37" transform="translate(31.93 23.39)" fill="#fff"/><circle data-name="Oval" cx="4.37" cy="4.37" r="4.37" transform="translate(45.93 23.39)" fill="#fff"/></g><g data-name="chatting-communication-chat-bubble-3b6bea64cc673e7f copy" transform="rotate(180 99.5 18)"><path data-name="Shape" d="M22.371 0C9.949 0 0-2.043 0-17.077 0-26.6 4.142-30.911 10.307-32.788v-6.769l5.548 5.68a65.521 65.521 0 016.565-.283c12.427 0 22.463 2.043 22.463 17.077S34.8 0 22.371 0z" fill="#7289da" opacity=".552"/><ellipse data-name="Oval" cx="2.694" cy="2.689" rx="2.694" ry="2.689" transform="rotate(180 8.22 -7.197)" fill="#fff"/><ellipse data-name="Oval" cx="2.694" cy="2.689" rx="2.694" ry="2.689" transform="rotate(180 12.536 -7.197)" fill="#fff"/><ellipse data-name="Oval" cx="2.694" cy="2.689" rx="2.694" ry="2.689" transform="rotate(180 16.85 -7.197)" fill="#fff"/></g><g data-name="chatting-communication-chat-bubble-3b6bea64cc673e7f copy 2" transform="translate(62 55)"><path data-name="Shape" d="M25.85 0C11.5 0 0 2.376 0 19.857c0 11.077 4.787 16.086 11.91 18.268l8.813 11.457-2.4-10.19a75.245 75.245 0 007.586.329c14.361 0 25.957-2.376 25.957-19.857S40.211 0 25.85 0z" fill="#7289da" opacity=".552"/><ellipse data-name="Oval" cx="3.113" cy="3.127" rx="3.113" ry="3.127" transform="translate(12.772 16.737)" fill="#fff"/><ellipse data-name="Oval" cx="3.113" cy="3.127" rx="3.113" ry="3.127" transform="translate(22.745 16.737)" fill="#fff"/><ellipse data-name="Oval" cx="3.113" cy="3.127" rx="3.113" ry="3.127" transform="translate(32.717 16.737)" fill="#fff"/></g></g><g data-name="Group 41 Copy"><g data-name="chatting-communication-chat-bubble-3b6bea64cc673e7f" transform="rotate(180 67.5 133.5)"><path data-name="Shape" d="M36.29 0C16.14 0 0 3.32 0 27.75c0 15.48 6.72 22.48 16.72 25.53v11l9-9.23a106.109 106.109 0 0010.65.46c20.16 0 36.44-3.32 36.44-27.75S56.45 0 36.29 0z" fill="#7289da" opacity=".552"/><circle data-name="Oval" cx="4.37" cy="4.37" r="4.37" transform="translate(17.93 23.39)" fill="#fff"/><circle data-name="Oval" cx="4.37" cy="4.37" r="4.37" transform="translate(31.93 23.39)" fill="#fff"/><circle data-name="Oval" cx="4.37" cy="4.37" r="4.37" transform="translate(45.93 23.39)" fill="#fff"/></g><g data-name="chatting-communication-chat-bubble-3b6bea64cc673e7f copy" transform="translate(173 254)"><path data-name="Shape" d="M22.371 0C9.949 0 0-2.043 0-17.077 0-26.6 4.142-30.911 10.307-32.788v-6.769l5.548 5.68a65.521 65.521 0 016.565-.283c12.427 0 22.463 2.043 22.463 17.077S34.8 0 22.371 0z" fill="#7289da" opacity=".552"/><ellipse data-name="Oval" cx="2.694" cy="2.689" rx="2.694" ry="2.689" transform="rotate(180 8.22 -7.197)" fill="#fff"/><ellipse data-name="Oval" cx="2.694" cy="2.689" rx="2.694" ry="2.689" transform="rotate(180 12.536 -7.197)" fill="#fff"/><ellipse data-name="Oval" cx="2.694" cy="2.689" rx="2.694" ry="2.689" transform="rotate(180 16.85 -7.197)" fill="#fff"/></g></g></g></g><path d="M203.229 195l-5.144-6.825A62.733 62.733 0 00225.182 170a73.656 73.656 0 01-19.637 10.684 80.81 80.81 0 01-13.712 3.576A100.3 100.3 0 01175 185.625a100.289 100.289 0 01-16.832-1.365 80.8 80.8 0 01-13.712-3.577A73.65 73.65 0 01124.818 170a62.777 62.777 0 0027.1 18.175L146.773 195a59.073 59.073 0 01-14.317-2.4 60.2 60.2 0 01-13.256-5.572A51.192 51.192 0 01106 176.25a193.951 193.951 0 014.1-29.955 155.146 155.146 0 016.34-21.5c4.317-11.379 8.336-17.24 8.375-17.3a61.4 61.4 0 019-5.623 68.175 68.175 0 019.946-4.218A56.42 56.42 0 01156.182 95l1.53 3.053c-14.341 3.22-22.777 9.447-29.757 15.697a125.342 125.342 0 0120.1-8.671 80.964 80.964 0 0112.17-2.784A98.617 98.617 0 01175 101.25a98.593 98.593 0 0114.775 1.045 81.005 81.005 0 0112.174 2.785c7.264 2.261 13.4 5.264 20.1 8.671-7.082-6.341-14.208-11.9-29.758-15.7L193.818 95a50.934 50.934 0 0112.064 2.494 68.27 68.27 0 019.985 4.236 66.46 66.46 0 019.314 5.77c.04.058 4.071 5.948 8.375 17.3a155.145 155.145 0 016.34 21.5A193.981 193.981 0 01244 176.25a51.189 51.189 0 01-13.2 10.778 60.241 60.241 0 01-13.255 5.572 59.487 59.487 0 01-14.316 2.4zm-7.843-56.25c-6.053 0-10.977 5.608-10.977 12.5s4.924 12.5 10.977 12.5 10.977-5.608 10.977-12.5-4.924-12.5-10.977-12.5zm-40.773 0c-6.053 0-10.977 5.608-10.977 12.5s4.924 12.5 10.977 12.5 10.977-5.608 10.977-12.5-4.924-12.5-10.976-12.5z" fill="#7159c1"/></g></g></g></svg>