<svg width="30" height="36" viewBox="0 0 30 36" xmlns="http://www.w3.org/2000/svg"><path d="M14.08 23.57c-.895-.558-4.674-2.901-4.674-2.901s-3.777-2.347-4.673-2.902a.131.131 0 00-.2.109l-.033.697a.417.417 0 00.062.239l1.073 1.735c.11.18.143.397.091.601l-.758 2.964a.312.312 0 00.106.32c.39.316.874.663 1.456 1.024a14.4 14.4 0 001.56.849.3.3 0 00.329-.05l2.248-2.04a.75.75 0 01.568-.192l2.008.177a.4.4 0 00.238-.053l.595-.347a.135.135 0 00.004-.23m-6.354 3.748a.75.75 0 00-.403-.55c-.6-.3-1.076-.588-1.207-.668a17.09 17.09 0 01-1.142-.776.74.74 0 00-.67-.11l-.13.042a2.83 2.83 0 00-1.853 1.947L.01 35.632c-.077.28.26.487.472.29 1.451-1.343 4.679-4.331 6.392-5.919a2.848 2.848 0 00.873-2.549l-.022-.136zM29.85 1.585c.275-.367.11-.646-.012-.76A.987.987 0 0029.37.62L25.394.01a1 1 0 00-.96.403l-2.17 2.976a1.023 1.023 0 00.17 1.385.077.077 0 01.016.098.077.077 0 01-.076.036l-1.095-.168-1.507-.231c-.42-.064-.84.111-1.091.457l-6.342 8.7a.267.267 0 01-.356.071l-6.105-3.73a.835.835 0 00-1.165.307c-.23.407-.067.927.329 1.17l.158.096c.078.047.12.138.106.229l-.185 1.243a.167.167 0 01-.252.12l-.893-.538a1.523 1.523 0 00-2.108.513 1.564 1.564 0 00.29 1.968c.016.015.174.138.215.164l.002.001 4.561 2.826c2.466 1.506 4.34.271 4.925-.172.519-.393 1.109-.827 2.093-.223.353.217.798.209 1.153-.004l1.135-.68c.335-.201.753-.2 1.086.004l3.458 2.114a.305.305 0 00.407-.082l8.452-11.577c.69-.93.18-1.383-.24-1.494-.028-.007-.054-.014-.082-.019l-2.027-.31a.244.244 0 01-.166-.367c.687-.94 2.72-3.712 2.72-3.712" fill="#FFF" fill-rule="evenodd"/></svg>