<svg width="142" height="32" viewBox="0 0 142 32" xmlns="http://www.w3.org/2000/svg"><g fill="#7159C1" fill-rule="evenodd"><path d="M42.934 14.601h-2.57v-3.65h2.59c1.936 0 2.342.958 2.342 1.762 0 1.27-.773 1.888-2.362 1.888zm2.43 2.396c1.51-.51 3.081-1.89 3.06-4.284 0-2.809-1.898-4.356-5.345-4.356h-5.755a.068.068 0 00-.068.069v14.86c0 .038.03.07.068.07h2.971a.07.07 0 00.069-.07v-6.05h1.68l3.615 6.086a.07.07 0 00.059.033h3.448a.069.069 0 00.058-.104l-3.86-6.254zm9.613 3.858c-1.509 0-2.446-1.152-2.446-3.006 0-1.829.937-2.965 2.446-2.965 1.495 0 2.424 1.136 2.424 2.965 0 1.854-.929 3.006-2.424 3.006m0-8.54c-3.061 0-5.283 2.328-5.283 5.534 0 3.322 2.123 5.554 5.283 5.554 3.049 0 5.262-2.336 5.262-5.554 0-3.31-2.115-5.533-5.262-5.533m11.636 2.568c1.138 0 1.829.536 2.052 1.593a.068.068 0 00.067.054h2.638a.068.068 0 00.068-.074c-.215-2.632-1.951-4.142-4.763-4.142-1.592 0-2.93.558-3.868 1.613-.898 1.01-1.373 2.393-1.373 4.002 0 3.376 1.968 5.473 5.137 5.473 2.804 0 4.578-1.487 4.867-4.08a.068.068 0 00-.068-.076h-2.638a.068.068 0 00-.067.056c-.208 1.045-.874 1.532-2.094 1.532-2.001 0-2.3-1.845-2.3-2.946 0-1.453.615-3.005 2.342-3.005m18.83 1.671c.271-1.163 1.018-1.752 2.22-1.752 1.18 0 1.9.59 2.14 1.752h-4.36zm2.262-4.24c-3.122 0-5.22 2.24-5.22 5.575 0 3.452 1.959 5.513 5.24 5.513 2.406 0 4.304-1.47 4.618-3.575a.068.068 0 00-.068-.078h-2.617a.068.068 0 00-.064.046c-.288.813-.859 1.16-1.91 1.16-1.39 0-2.176-.739-2.334-2.194h7.216a.068.068 0 00.068-.064c.021-.298.042-.605.042-.97 0-3.338-1.905-5.412-4.97-5.412zm13.374.001h-2.425v-2.67a.068.068 0 00-.068-.068h-2.7a.068.068 0 00-.069.068v2.67h-1.843a.069.069 0 00-.068.068V14.8c0 .037.03.068.068.068h1.843v5.638c0 2.405 1.364 2.897 3.413 2.897h1.849c.038 0 .068-.03.068-.068V20.96a.068.068 0 00-.068-.068h-1.371c-.817 0-1.054-.22-1.054-.985v-5.039h2.425c.038 0 .068-.03.068-.068v-2.416a.068.068 0 00-.068-.068m7.766 4.664h-.001l-2.284-.723c-.852-.288-1.013-.517-1.013-.839 0-.333.146-.775 1.407-.775.98 0 1.575.403 1.593 1.078a.069.069 0 00.068.067h2.639a.068.068 0 00.068-.07c-.01-1.187-.458-2.084-1.332-2.665-.725-.483-1.753-.737-2.974-.737-2.094 0-4.347.872-4.39 3.323 0 1.907 1.4 2.586 2.77 3l1.744.541c1.264.415 1.594.543 1.594 1.02 0 .538-.3.896-1.76.896-1.17 0-1.765-.426-1.822-1.302a.068.068 0 00-.068-.064h-2.639a.069.069 0 00-.068.068c0 2.98 2.511 3.605 4.618 3.605.875 0 2.128-.132 3.132-.764.958-.603 1.444-1.504 1.444-2.68 0-1.723-1.09-2.437-2.726-2.978m6.655-.426c.273-1.163 1.02-1.752 2.222-1.752 1.18 0 1.9.59 2.14 1.752H115.5zm2.263-4.24c-3.122 0-5.22 2.24-5.22 5.575 0 3.452 1.96 5.513 5.241 5.513 2.405 0 4.303-1.47 4.617-3.575a.068.068 0 00-.067-.078h-2.618a.068.068 0 00-.064.046c-.287.813-.858 1.16-1.91 1.16-1.39 0-2.175-.739-2.334-2.194h7.216a.068.068 0 00.069-.064c.02-.298.041-.605.041-.97 0-3.338-1.904-5.412-4.97-5.412zm12.797 6.371c0 1.375-1.056 2.452-2.404 2.452-.584 0-1.282-.186-1.282-1.072 0-.65.454-1.013 1.566-1.253l1.556-.32c.176-.03.399-.09.564-.17v.363zm3.642 2.471h-.25c-.373 0-.554-.187-.554-.572v-4.26c0-2.698-1.47-4.01-4.494-4.01-2.78 0-4.576 1.354-4.576 3.45 0 .038.03.068.068.068h2.639c.037 0 .068-.03.068-.068 0-.698.585-1.052 1.739-1.052 1.095 0 1.698.345 1.698.972 0 .522-.2.673-1.067.813l-1.785.34c-2.478.437-3.734 1.584-3.734 3.408 0 1.86 1.397 3.11 3.475 3.11 1.5 0 2.616-.501 3.321-1.49.05 1.018.726 1.549 1.395 1.549h2.057a.068.068 0 00.068-.069v-2.12a.068.068 0 00-.068-.069zm7.595-6.289c.038 0 .068-.03.068-.068v-2.416a.068.068 0 00-.068-.068h-2.425v-2.67a.068.068 0 00-.068-.068h-2.7a.068.068 0 00-.069.068v2.67h-1.843a.068.068 0 00-.068.068V14.8c0 .037.03.068.068.068h1.843v5.638c0 2.404 1.364 2.897 3.413 2.897h1.85c.037 0 .067-.03.067-.068V20.96a.068.068 0 00-.068-.068h-1.371c-.817 0-1.054-.22-1.054-.984v-5.04h2.425z"/><path d="M78.497 16.661l4.292-4.228c.02-.02.026-.05.015-.075a.068.068 0 00-.063-.042h-3.384a.067.067 0 00-.047.019l-3.805 3.697v-3.648a.069.069 0 00-.068-.068h-2.7a.068.068 0 00-.07.068v10.95c0 .039.031.07.07.07h2.7a.069.069 0 00.068-.07v-3.708l.96-.946 3.195 4.693c.013.019.034.03.056.03h3.366a.068.068 0 00.056-.108l-4.641-6.634zm-65.889 4.062c-.794-.487-4.142-2.533-4.142-2.533s-3.347-2.05-4.142-2.535a.117.117 0 00-.177.095l-.029.61a.36.36 0 00.055.208l.95 1.516a.671.671 0 01.082.525l-.672 2.588a.27.27 0 00.094.28c.346.276.774.579 1.29.894.516.316.98.559 1.382.742a.27.27 0 00.292-.044l1.992-1.781a.668.668 0 01.503-.168l1.78.155a.358.358 0 00.21-.047l.528-.304a.117.117 0 00.004-.2m-5.622 3.304a.66.66 0 00-.357-.484 15.1 15.1 0 01-1.068-.589c-.116-.07-.534-.33-1.011-.683a.658.658 0 00-.593-.096l-.115.037c-.8.258-1.417.902-1.64 1.714L.156 31.35c-.068.247.23.43.418.256l5.657-5.213c.62-.57.91-1.414.773-2.245l-.02-.12zM26.463 1.426c.242-.322.097-.566-.012-.666a.877.877 0 00-.413-.178L22.523.048a.888.888 0 00-.848.352l-1.918 2.605a.889.889 0 00.15 1.212.067.067 0 01.014.086.068.068 0 01-.068.031l-.967-.147-1.332-.202a1.01 1.01 0 00-.965.4L10.984 12a.238.238 0 01-.315.063L5.273 8.797a.742.742 0 00-1.03.269c-.202.356-.059.811.29 1.023l.14.084a.2.2 0 01.095.201l-.164 1.088a.148.148 0 01-.223.105l-.79-.47a1.354 1.354 0 00-1.862.448 1.36 1.36 0 00.255 1.723c.015.013.154.12.19.143l.003.001 4.031 2.473c2.18 1.319 3.836.237 4.353-.15.459-.344.98-.725 1.85-.195a.991.991 0 001.02-.004l1.003-.596a.934.934 0 01.96.004l3.057 1.85c.12.073.275.042.359-.071L26.28 6.59c.61-.814.159-1.21-.213-1.307-.024-.006-.047-.012-.072-.016l-1.792-.272a.218.218 0 01-.077-.03.212.212 0 01-.07-.291l2.406-3.248"/></g></svg>